<svg width="817" height="144" viewBox="0 0 817 144" fill="none" xmlns="http://www.w3.org/2000/svg">
<path d="M0 0.0100098H8.9C13.53 0.0100098 16.82 1.87 16.82 7.13C16.82 12.39 13.52 14.24 8.9 14.24H1.12V25.07H0V0.0100098ZM9.21 13.26C13.17 13.26 15.62 11.4 15.62 7.13C15.62 2.85 13.17 0.990021 9.21 0.990021H1.12V13.26H9.21Z" fill="#1D1D1B"/>
<path d="M29.3601 7.82001C25.4401 7.82001 22.8801 11.18 22.8801 13.46V25.06H21.8301V0H22.8801V10.69H22.9501C24.0701 8.73 26.1101 6.90002 29.6101 6.90002C32.6601 6.90002 35.1101 8.72003 35.1101 12.37V25.06H34.0601V12.37C34.0601 10.21 33.1501 7.82001 29.3601 7.82001Z" fill="#1D1D1B"/>
<path d="M40.2598 16.2C40.2598 10.7 43.3798 6.91003 48.4898 6.91003C53.5998 6.91003 56.7298 10.7 56.7298 16.2C56.7298 21.71 53.6098 25.4901 48.4898 25.4901C43.3698 25.4901 40.2598 21.7 40.2598 16.2ZM48.4898 24.58C53.0798 24.58 55.6098 21 55.6098 16.2C55.6098 11.4 53.0898 7.82004 48.4898 7.82004C43.8998 7.82004 41.3798 11.39 41.3798 16.2C41.3798 21.01 43.8998 24.58 48.4898 24.58Z" fill="#1D1D1B"/>
<path d="M62.4298 20.86V8.09998H59.7998V7.18997H62.4298V1.22998H63.4798V7.18997H67.4398V8.09998H63.4798V20.68C63.4798 23.63 64.0798 24.22 66.2798 24.22C66.7398 24.22 67.0198 24.18 67.4398 24.15V25.03C66.9498 25.1 66.5298 25.13 66.1398 25.13C63.5498 25.14 62.4298 24.33 62.4298 20.86Z" fill="#1D1D1B"/>
<path d="M70.5596 16.2C70.5596 10.7 73.6796 6.91003 78.7896 6.91003C83.8996 6.91003 87.0296 10.7 87.0296 16.2C87.0296 21.71 83.9096 25.4901 78.7896 25.4901C73.6696 25.4901 70.5596 21.7 70.5596 16.2ZM78.7996 24.58C83.3896 24.58 85.9196 21 85.9196 16.2C85.9196 11.4 83.3996 7.82004 78.7996 7.82004C74.2096 7.82004 71.6896 11.39 71.6896 16.2C71.6896 21.01 74.2096 24.58 78.7996 24.58Z" fill="#1D1D1B"/>
<path d="M91.8699 26.4001H92.9199C93.2999 28.5401 95.2299 30.57 99.2999 30.57C103.22 30.57 105.82 28.64 105.82 24.47V19.98H105.75C104.73 22.57 102.14 24.36 98.9899 24.36C95.0599 24.36 91.3799 21.63 91.3799 15.53C91.3799 9.64003 95.0599 6.91003 98.9899 6.91003C102.14 6.91003 104.7 8.63005 105.75 11.4001H105.82V7.16003H106.87V24.0901C106.87 29.1401 103.86 31.48 99.2299 31.48C94.6699 31.48 92.1499 29.1001 91.8699 26.4001ZM99.2299 23.4601C102.35 23.4601 105.82 21 105.82 15.54C105.82 10.28 102.35 7.83005 99.2299 7.83005C95.5499 7.83005 92.4999 10.28 92.4999 15.54C92.4999 21 95.5499 23.4601 99.2299 23.4601Z" fill="#1D1D1B"/>
<path d="M114.19 25.07H113.14V7.19H114.19V11.05H114.26C115.03 8.70002 117.21 6.95001 119.69 6.95001C120.25 6.95001 120.64 6.98002 120.99 7.05002V7.96002C120.75 7.93002 120.18 7.89001 120.04 7.89001C116.96 7.89001 114.19 10.41 114.19 14.02V25.07V25.07Z" fill="#1D1D1B"/>
<path d="M123.4 20.68C123.4 17.39 125.5 15.98 130.13 15.25C132.83 14.83 135.84 14.9 135.84 11.81C135.84 9.11003 133.77 7.81003 131 7.81003C127.39 7.81003 125.53 9.53001 125.36 12.23H124.24C124.41 9.74001 125.96 6.90002 131 6.90002C134.26 6.90002 136.89 8.27002 136.89 12.33V22.11C136.89 23.62 137.1 24.22 138.12 24.22C138.36 24.22 138.54 24.18 138.79 24.15V25.06C138.54 25.09 138.23 25.13 137.98 25.13C136.61 25.13 135.84 24.53 135.84 22.19H135.77C134.33 24.5 132.02 25.45 129.18 25.45C125.75 25.45 123.4 23.6 123.4 20.68ZM129.46 24.54C133.84 24.54 135.84 21.6 135.84 18.86V14.34C135.31 15.5 133.1 15.85 130.48 16.16C127.05 16.58 124.52 17.56 124.52 20.36C124.52 23.14 126.24 24.54 129.46 24.54Z" fill="#1D1D1B"/>
<path d="M144.74 20.3701H144.67V31.2701H143.62V7.19003H144.67V11.6801H144.74C145.76 9.09005 148.07 6.81006 151.78 6.81006C155.85 6.81006 159.21 10.24 159.21 16.13C159.21 21.91 155.85 25.35 151.74 25.35C148.07 25.35 145.79 23.1401 144.74 20.3701ZM151.54 24.44C155.36 24.44 158.09 21.28 158.09 16.13C158.09 10.87 155.36 7.72003 151.54 7.72003C147.86 7.72003 144.67 10.88 144.67 16.13C144.67 21.28 147.86 24.44 151.54 24.44Z" fill="#1D1D1B"/>
<path d="M172.03 7.82001C168.11 7.82001 165.55 11.18 165.55 13.46V25.06H164.5V0H165.55V10.69H165.62C166.74 8.73 168.78 6.90002 172.28 6.90002C175.33 6.90002 177.78 8.72003 177.78 12.37V25.06H176.73V12.37C176.73 10.21 175.82 7.82001 172.03 7.82001Z" fill="#1D1D1B"/>
<path d="M183.18 31.23V30.32C183.6 30.35 183.88 30.39 184.54 30.39C186.68 30.39 187.52 28.95 188.92 25.13L181.77 7.19H182.89L189.41 23.63H189.44L195.71 7.19H196.83L189.79 25.56C188.11 29.91 186.95 31.34 184.57 31.34C184.16 31.34 183.77 31.31 183.18 31.23Z" fill="#1D1D1B"/>
<path d="M48.8096 35.04H64.9296V36.0201H49.9296V46.29H63.6996V47.2701H49.9296V59.1201H65.2796V60.1H48.8096V35.04V35.04Z" fill="#1D1D1B"/>
<path d="M75.1202 50.96L68.5002 42.23H69.8002L75.7902 50.22H75.8602L81.8502 42.23H83.1502L76.5302 50.96L83.7502 60.11H82.4202L75.8702 51.63H75.8002L69.2802 60.11H67.9502L75.1202 50.96Z" fill="#1D1D1B"/>
<path d="M95.1999 42.86C91.2799 42.86 88.7199 46.22 88.7199 48.5V60.1H87.6699V35.04H88.7199V45.73H88.7899C89.9099 43.77 91.9499 41.94 95.4499 41.94C98.4999 41.94 100.95 43.76 100.95 47.41V60.1H99.8999V47.41C99.8999 45.24 98.9799 42.86 95.1999 42.86Z" fill="#1D1D1B"/>
<path d="M106.65 36.48H108.62V38.45H106.65V36.48ZM107.11 42.23H108.16V60.11H107.11V42.23Z" fill="#1D1D1B"/>
<path d="M115.59 55.3701H115.52V60.1H114.47V35.04H115.52V46.6801H115.59C116.61 44.0901 118.92 41.8101 122.63 41.8101C126.7 41.8101 130.06 45.24 130.06 51.13C130.06 56.91 126.7 60.35 122.59 60.35C118.92 60.35 116.64 58.1401 115.59 55.3701ZM122.39 59.44C126.21 59.44 128.94 56.28 128.94 51.13C128.94 45.87 126.21 42.72 122.39 42.72C118.71 42.72 115.52 45.88 115.52 51.13C115.52 56.29 118.71 59.44 122.39 59.44Z" fill="#1D1D1B"/>
<path d="M134.89 36.48H136.86V38.45H134.89V36.48ZM135.35 42.23H136.4V60.11H135.35V42.23Z" fill="#1D1D1B"/>
<path d="M143.37 55.9V43.14H140.74V42.23H143.37V36.27H144.42V42.23H148.38V43.14H144.42V55.72C144.42 58.67 145.02 59.26 147.22 59.26C147.68 59.26 147.96 59.22 148.38 59.19V60.07C147.89 60.14 147.47 60.17 147.08 60.17C144.49 60.17 143.37 59.37 143.37 55.9Z" fill="#1D1D1B"/>
<path d="M152.59 36.48H154.56V38.45H152.59V36.48ZM153.04 42.23H154.09V60.11H153.04V42.23Z" fill="#1D1D1B"/>
<path d="M159.38 51.24C159.38 45.74 162.5 41.95 167.61 41.95C172.72 41.95 175.85 45.74 175.85 51.24C175.85 56.75 172.73 60.53 167.61 60.53C162.49 60.53 159.38 56.74 159.38 51.24ZM167.62 59.62C172.21 59.62 174.74 56.04 174.74 51.24C174.74 46.44 172.22 42.86 167.62 42.86C163.03 42.86 160.51 46.43 160.51 51.24C160.51 56.04 163.03 59.62 167.62 59.62Z" fill="#1D1D1B"/>
<path d="M188.68 42.86C184.76 42.86 182.2 46.22 182.2 48.5V60.1H181.15V42.22H182.2V45.73H182.27C183.39 43.77 185.43 41.94 188.93 41.94C191.98 41.94 194.43 43.76 194.43 47.41V60.1H193.38V47.41C193.38 45.24 192.46 42.86 188.68 42.86Z" fill="#1D1D1B"/>
<path d="M232.02 7.09009H252.58V122.96H320.23V140.71H232.02V7.09009V7.09009Z" fill="#1D1D1B"/>
<path d="M319.1 27.4601H309.38V7.09009H329.75V27.4601C329.75 39.6101 324.33 49.1401 309.38 52.8801V42.7901C316.3 40.7301 319.29 37.1801 319.1 27.4601Z" fill="#1D1D1B"/>
<path d="M326.76 116.05C326.76 94.75 342.83 88.39 366.57 83.91C381.52 81.1 390.68 79.24 390.68 69.89C390.68 62.97 386.57 57.1801 372.55 57.1801C355.92 57.1801 350.87 62.4201 349.94 75.1201H331.25C332.18 56.8101 344.14 42.42 373.3 42.42C392.92 42.42 408.62 50.6401 408.62 75.3101V119.04C408.62 125.96 409.56 129.51 413.1 129.51C413.66 129.51 414.22 129.51 415.34 129.32V140.54C412.16 141.29 408.99 141.66 406 141.66C396.84 141.66 391.98 138.11 390.86 127.27H390.49C384.32 137.17 373.48 143.34 357.97 143.34C338.91 143.33 326.76 132.31 326.76 116.05ZM362.08 128.57C378.53 128.57 390.67 120.16 390.67 103.53V89.8801C387.68 92.6901 379.46 94.74 369.74 96.8C352.92 100.16 345.82 104.84 345.82 114.74C345.83 123.71 350.68 128.57 362.08 128.57Z" fill="#1D1D1B"/>
<path d="M466.73 58.3001C453.09 58.3001 444.49 67.8301 444.49 82.2201V140.72H426.17V45.4101H444.49V57.3701H444.86C449.91 50.0801 458.69 42.6101 473.08 42.6101C486.35 42.6101 494.57 48.5901 498.31 59.2401H498.69C505.6 50.0801 515.32 42.6101 529.9 42.6101C549.15 42.6101 558.87 54.2001 558.87 74.5701V140.73H540.56V79.6201C540.56 66.9101 537.94 58.3101 523.93 58.3101C510.29 58.3101 501.69 67.8401 501.69 82.2301V140.73H483.37V79.6201C483.37 66.9001 480.75 58.3001 466.73 58.3001Z" fill="#1D1D1B"/>
<path d="M592.86 128.94H592.49V140.71H574.18V7.09009H592.49V56.6201H592.86C598.1 49.8901 607.25 42.6001 622.2 42.6001C646.49 42.6001 665 61.6601 665 93.0601C665 124.46 646.5 143.33 622.2 143.33C607.25 143.33 598.1 136.61 592.86 128.94ZM619.21 128.2C637.15 128.2 645.75 111.75 645.75 93.0601C645.75 74.3701 637.15 57.9301 619.21 57.9301C602.77 57.9301 592.67 71.3801 592.67 93.0601C592.68 114.55 602.77 128.2 619.21 128.2Z" fill="#1D1D1B"/>
<path d="M694.33 140.72H676.02V45.41H694.33V63.54H694.7C699.75 51.58 707.41 43.17 720.31 43.17C723.67 43.17 726.289 43.36 729.089 43.73V61.3C726.849 60.92 725.169 60.7401 722.919 60.7401C706.289 60.7401 694.33 73.26 694.33 91.39V140.72Z" fill="#1D1D1B"/>
<path d="M728.159 116.05C728.159 94.75 744.229 88.39 767.969 83.91C782.919 81.1 792.079 79.24 792.079 69.89C792.079 62.97 787.969 57.1801 773.949 57.1801C757.319 57.1801 752.269 62.4201 751.339 75.1201H732.649C733.589 56.8101 745.549 42.42 774.699 42.42C794.329 42.42 810.019 50.6401 810.019 75.3101V119.04C810.019 125.96 810.959 129.51 814.509 129.51C815.069 129.51 815.629 129.51 816.749 129.32V140.54C813.569 141.29 810.389 141.66 807.399 141.66C798.239 141.66 793.379 138.11 792.259 127.27H791.889C785.719 137.17 774.879 143.34 759.369 143.34C740.309 143.33 728.159 132.31 728.159 116.05ZM763.479 128.57C779.929 128.57 792.069 120.16 792.069 103.53V89.8801C789.079 92.6901 780.859 94.74 771.139 96.8C754.319 100.16 747.219 104.84 747.219 114.74C747.219 123.71 752.079 128.57 763.479 128.57Z" fill="#1D1D1B"/>
</svg>
